<svg version="1.1" xmlns="http://www.w3.org/2000/svg" viewBox="0 0 832 702.6038573314496" width="832" height="702.6038573314496">
  <!-- svg-source:excalidraw -->
  
  <defs>
    <style class="style-fonts">
      @font-face {
        font-family: "Virgil";
        src: url("https://excalidraw.com/Virgil.woff2");
      }
      @font-face {
        font-family: "Cascadia";
        src: url("https://excalidraw.com/Cascadia.woff2");
      }
    </style>
  </defs>
  <rect x="0" y="0" width="832" height="702.6038573314496" fill="#ffffff"></rect><g stroke-linecap="round" transform="translate(225 189.10385733144963) rotate(0 78 58)"><path d="M91.88 0.43 C102.57 1.08, 114.19 5.88, 123.31 10.81 C132.42 15.73, 141 22.47, 146.57 29.96 C152.13 37.45, 156.15 47.21, 156.72 55.74 C157.28 64.26, 154.51 73.35, 149.97 81.09 C145.42 88.84, 137.88 96.8, 129.45 102.21 C121.02 107.62, 110.35 111.3, 99.38 113.57 C88.41 115.85, 74.7 117.36, 63.65 115.86 C52.59 114.36, 42.1 109.69, 33.04 104.56 C23.98 99.42, 14.76 92.42, 9.29 85.06 C3.82 77.69, 0.72 68.64, 0.22 60.37 C-0.29 52.11, 1.87 43.14, 6.24 35.48 C10.61 27.81, 17.78 19.92, 26.44 14.39 C35.09 8.86, 46.27 4.41, 58.18 2.31 C70.09 0.2, 90.49 1.52, 97.87 1.77 C105.26 2.01, 103.01 2.96, 102.48 3.77 M56.43 0.55 C66.48 -2.32, 82.32 0.01, 93.54 1.64 C104.76 3.26, 114.65 5.57, 123.75 10.32 C132.85 15.07, 142.77 22.34, 148.13 30.13 C153.49 37.91, 155.43 48.58, 155.91 57.02 C156.39 65.46, 155.57 73.1, 151.02 80.77 C146.46 88.44, 137.53 97.33, 128.58 103.02 C119.63 108.72, 108.1 112.93, 97.3 114.94 C86.51 116.95, 74.51 116.82, 63.81 115.09 C53.1 113.36, 42.01 109.4, 33.07 104.57 C24.14 99.74, 15.58 93.31, 10.21 86.1 C4.83 78.89, 1.31 69.82, 0.84 61.3 C0.37 52.77, 2.98 42.72, 7.39 34.95 C11.81 27.19, 19.14 20.01, 27.34 14.7 C35.54 9.4, 51.54 5.13, 56.6 3.13 C61.67 1.13, 57.31 1.7, 57.74 2.68" stroke="#000000" stroke-width="1" fill="none"></path></g><g transform="translate(270.5 221.10385733144963) rotate(0 32.5 26)"><text x="32.5" y="18" font-family="Virgil, Segoe UI Emoji" font-size="20px" fill="#000000" text-anchor="middle" style="white-space: pre;" direction="ltr">MQTT</text><text x="32.5" y="44" font-family="Virgil, Segoe UI Emoji" font-size="20px" fill="#000000" text-anchor="middle" style="white-space: pre;" direction="ltr">Broker</text></g><g stroke-linecap="round" transform="translate(221 404.1038573314496) rotate(0 78 58)"><path d="M48.18 4.97 C57.67 1.09, 70.45 -0.74, 81.46 -0.46 C92.47 -0.17, 104.2 2.52, 114.25 6.67 C124.3 10.82, 134.91 17.48, 141.74 24.45 C148.58 31.41, 153.27 40.44, 155.26 48.46 C157.24 56.48, 156.65 64.5, 153.65 72.56 C150.66 80.63, 144.84 90.48, 137.31 96.87 C129.77 103.26, 119 107.78, 108.42 110.88 C97.84 113.98, 85.18 115.69, 73.82 115.47 C62.45 115.25, 50.13 113.57, 40.22 109.56 C30.31 105.55, 20.72 98.27, 14.34 91.41 C7.96 84.56, 3.95 76.74, 1.94 68.45 C-0.07 60.16, -0.72 49.6, 2.26 41.67 C5.24 33.73, 11.58 27.2, 19.84 20.82 C28.1 14.43, 45.8 6.34, 51.82 3.36 C57.85 0.38, 55.59 2.07, 55.96 2.93 M86.57 1.71 C97.39 1.61, 109.25 3.92, 118.84 8.15 C128.43 12.38, 137.98 20.01, 144.13 27.08 C150.27 34.15, 154.27 42.15, 155.69 50.55 C157.11 58.95, 156.17 69.45, 152.65 77.49 C149.13 85.53, 142.85 92.72, 134.58 98.78 C126.3 104.84, 113.79 111.04, 103 113.86 C92.2 116.67, 80.84 116.84, 69.79 115.67 C58.74 114.5, 46.32 111.14, 36.71 106.85 C27.1 102.57, 18.34 96.98, 12.12 89.94 C5.91 82.91, 0.58 73.26, -0.58 64.64 C-1.74 56.02, 1.35 46.3, 5.15 38.22 C8.94 30.15, 14.54 22, 22.21 16.19 C29.89 10.38, 40.28 5.95, 51.19 3.36 C62.1 0.76, 81.59 0.82, 87.65 0.63 C93.71 0.44, 87.87 1.35, 87.55 2.22" stroke="#000000" stroke-width="1" fill="none"></path></g><g transform="translate(250 449.1038573314496) rotate(0 49 13)"><text x="49" y="18" font-family="Virgil, Segoe UI Emoji" font-size="20px" fill="#000000" text-anchor="middle" style="white-space: pre;" direction="ltr">subscriber</text></g><g stroke-linecap="round"><g transform="translate(248 287.1038573314496) rotate(0 -14.072587035672086 64.07447373603412)"><path d="M-0.68 -0.97 C-5.42 8.58, -28.23 35.08, -28.56 56.65 C-28.9 78.21, -6.89 116.1, -2.7 128.42 M1.16 1.14 C-3.69 10.91, -28.5 36.67, -29.28 58 C-30.07 79.33, -7.8 117.37, -3.54 129.12" stroke="#000000" stroke-width="1" fill="none"></path></g><g transform="translate(248 287.1038573314496) rotate(0 -14.072587035672086 64.07447373603412)"><path d="M-26.25 108.52 C-19.25 113.85, -14.53 118.74, -1.92 127.38 M-25.09 108.19 C-20.22 112.08, -14.84 118.9, -3.64 129.7" stroke="#000000" stroke-width="1" fill="none"></path></g><g transform="translate(248 287.1038573314496) rotate(0 -14.072587035672086 64.07447373603412)"><path d="M-7.61 99.95 C-6.03 107.65, -6.68 115.01, -1.92 127.38 M-6.44 99.62 C-6.19 105.68, -5.42 114.62, -3.64 129.7" stroke="#000000" stroke-width="1" fill="none"></path></g></g><g transform="translate(120 365.1038573314496) rotate(0 55.5 42)"><text x="55.5" y="15" font-family="Virgil, Segoe UI Emoji" font-size="16px" fill="#000000" text-anchor="middle" style="white-space: pre;" direction="ltr">2. subscribes </text><text x="55.5" y="36" font-family="Virgil, Segoe UI Emoji" font-size="16px" fill="#000000" text-anchor="middle" style="white-space: pre;" direction="ltr">to </text><text x="55.5" y="57" font-family="Virgil, Segoe UI Emoji" font-size="16px" fill="#000000" text-anchor="middle" style="white-space: pre;" direction="ltr">'DATA'</text><text x="55.5" y="78" font-family="Virgil, Segoe UI Emoji" font-size="16px" fill="#000000" text-anchor="middle" style="white-space: pre;" direction="ltr">topic</text></g><g stroke-linecap="round"><g transform="translate(354 419.1038573314496) rotate(0 12.941286201724893 -65.68033213950693)"><path d="M0.09 0.5 C4.71 -11.11, 26.36 -46.89, 27.18 -68.95 C28 -91.01, 8.58 -121.69, 5.01 -131.86 M-1.32 -0.29 C3.21 -12.27, 24.87 -48.73, 26.32 -70.52 C27.78 -92.3, 10.79 -120.75, 7.39 -130.99" stroke="#000000" stroke-width="1" fill="none"></path></g><g transform="translate(354 419.1038573314496) rotate(0 12.941286201724893 -65.68033213950693)"><path d="M28.88 -108.94 C24.45 -116.37, 16.04 -120.57, 9.18 -130.16 M28.32 -109.85 C19.81 -118.64, 12.08 -126.65, 6.74 -131.9" stroke="#000000" stroke-width="1" fill="none"></path></g><g transform="translate(354 419.1038573314496) rotate(0 12.941286201724893 -65.68033213950693)"><path d="M10.07 -100.75 C10.36 -110.27, 6.71 -116.54, 9.18 -130.16 M9.51 -101.66 C8.45 -113.69, 8.2 -124.96, 6.74 -131.9" stroke="#000000" stroke-width="1" fill="none"></path></g></g><g transform="translate(388 353.1038573314496) rotate(0 45 42)"><text x="0" y="15" font-family="Virgil, Segoe UI Emoji" font-size="16px" fill="#000000" text-anchor="start" style="white-space: pre;" direction="ltr">5. publishes</text><text x="0" y="36" font-family="Virgil, Segoe UI Emoji" font-size="16px" fill="#000000" text-anchor="start" style="white-space: pre;" direction="ltr">to</text><text x="0" y="57" font-family="Virgil, Segoe UI Emoji" font-size="16px" fill="#000000" text-anchor="start" style="white-space: pre;" direction="ltr">'STATS'</text><text x="0" y="78" font-family="Virgil, Segoe UI Emoji" font-size="16px" fill="#000000" text-anchor="start" style="white-space: pre;" direction="ltr">topic</text></g><g stroke-linecap="round" transform="translate(10 49.10385733144962) rotate(0 78 58.00000000000001)"><path d="M61.3 2.28 C71.49 -0.23, 84.73 -0.93, 95.83 0.88 C106.93 2.7, 119.14 7.85, 127.91 13.18 C136.68 18.51, 143.86 25.25, 148.44 32.86 C153.03 40.47, 155.63 50.29, 155.44 58.85 C155.24 67.41, 152.12 76.65, 147.27 84.22 C142.42 91.78, 135.02 99.02, 126.34 104.23 C117.67 109.43, 106.43 113.89, 95.22 115.45 C84.02 117.02, 70.14 115.84, 59.12 113.63 C48.1 111.42, 37.61 107.23, 29.12 102.18 C20.62 97.13, 12.97 90.73, 8.17 83.31 C3.37 75.88, 0.48 66.1, 0.33 57.62 C0.18 49.14, 2.26 39.89, 7.29 32.43 C12.32 24.97, 20.4 18.09, 30.52 12.88 C40.63 7.66, 60.45 3, 68 1.13 C75.56 -0.74, 75.52 0.78, 75.87 1.65 M46.43 6.35 C55.7 2.25, 69.11 0.7, 80.03 0.67 C90.95 0.64, 102.14 2.7, 111.95 6.15 C121.76 9.59, 131.64 14.76, 138.9 21.33 C146.17 27.9, 153.25 36.99, 155.52 45.56 C157.78 54.14, 155.6 64.37, 152.49 72.77 C149.37 81.17, 143.75 89.7, 136.83 95.96 C129.91 102.22, 120.98 107.19, 110.97 110.34 C100.97 113.49, 88.01 115.09, 76.79 114.85 C65.58 114.61, 53.68 112.52, 43.69 108.9 C33.7 105.28, 23.78 99.4, 16.86 93.15 C9.94 86.9, 4.36 79.49, 2.16 71.4 C-0.04 63.3, 1.15 52.99, 3.67 44.57 C6.18 36.14, 10.49 27.22, 17.26 20.85 C24.02 14.49, 39.32 8.73, 44.26 6.36 C49.2 3.99, 46.42 5.83, 46.92 6.65" stroke="#000000" stroke-width="1" fill="none"></path></g><g transform="translate(46.5 94.10385733144963) rotate(0 41.5 13)"><text x="41.5" y="18" font-family="Virgil, Segoe UI Emoji" font-size="20px" fill="#000000" text-anchor="middle" style="white-space: pre;" direction="ltr">publisher</text></g><g stroke-linecap="round"><g transform="translate(155 136.10385733144963) rotate(0 39.294643769040704 37.82123887347056)"><path d="M-0.52 1.15 C7.17 5.87, 33.36 17.35, 46.63 29.45 C59.91 41.55, 73.62 66.41, 79.11 73.75 M1.41 0.71 C8.96 6.09, 33.19 18.32, 46.02 30.69 C58.85 43.06, 72.71 67.67, 78.39 74.94" stroke="#000000" stroke-width="1" fill="none"></path></g><g transform="translate(155 136.10385733144963) rotate(0 39.294643769040704 37.82123887347056)"><path d="M58.02 59.89 C62.94 64.6, 71.06 70.86, 77.53 74.38 M55.76 59.55 C60.93 63.18, 66.76 67.17, 78.74 74.54" stroke="#000000" stroke-width="1" fill="none"></path></g><g transform="translate(155 136.10385733144963) rotate(0 39.294643769040704 37.82123887347056)"><path d="M73.58 49.33 C73.29 57.58, 76.1 67.44, 77.53 74.38 M71.33 48.99 C72.43 55.38, 74.27 62.07, 78.74 74.54" stroke="#000000" stroke-width="1" fill="none"></path></g></g><g transform="translate(124 172.10385733144963) rotate(0 42.5 42)"><text x="0" y="15" font-family="Virgil, Segoe UI Emoji" font-size="16px" fill="#000000" text-anchor="start" style="white-space: pre;" direction="ltr">1. publishes</text><text x="0" y="36" font-family="Virgil, Segoe UI Emoji" font-size="16px" fill="#000000" text-anchor="start" style="white-space: pre;" direction="ltr">to</text><text x="0" y="57" font-family="Virgil, Segoe UI Emoji" font-size="16px" fill="#000000" text-anchor="start" style="white-space: pre;" direction="ltr">'DATA'</text><text x="0" y="78" font-family="Virgil, Segoe UI Emoji" font-size="16px" fill="#000000" text-anchor="start" style="white-space: pre;" direction="ltr">topic</text></g><g stroke-linecap="round"><g transform="translate(275.7025174392029 566.7128156088265) rotate(0 26.9115545634034 6.362013797983707)" fill-rule="evenodd"><path d="M0 0 C0 0, 0 0, 0 0 M0 0 C0 0, 0 0, 0 0 M1.14 4.83 C2.31 2.7, 5.98 -0.93, 12.16 -9.21 M0.83 4.98 C5.33 1.44, 9.53 -5.02, 12.88 -8.98 M-0.1 11.43 C7.29 5.67, 11.46 -4.51, 19.41 -10.31 M0.87 11.67 C7.97 4, 15.33 -6.04, 19.78 -9.92 M0.23 14.85 C5.39 8.73, 11.24 6.43, 22.64 -8.63 M1.81 17.09 C9.32 6.68, 19.09 -3.55, 23.36 -10.23 M6.59 17.94 C12.42 12.53, 18.72 1.71, 28.15 -11.7 M4.2 18.84 C10.93 12.02, 16.45 6.21, 29.84 -10.61 M8.89 21.88 C12.81 15.89, 19.56 6.79, 36.71 -8.3 M8.2 20.9 C16.89 11.63, 23.82 3.13, 34.2 -8.57 M10.87 22.26 C17.85 14.43, 26.29 9.57, 39.8 -8.59 M11.83 22.44 C20.93 13.52, 28.97 4.55, 39.33 -8.93 M16.57 24.31 C23.36 13.71, 34.42 4.78, 44.82 -7.65 M16.38 22.57 C22.84 15.06, 30.39 7.72, 43.11 -6.77 M21.39 24.59 C31.29 14.15, 38.48 4.56, 47.3 -5.58 M21.33 22.64 C26.79 16.92, 32.98 11.52, 47.61 -5.93 M28.43 23.4 C35.34 13.11, 45.12 0.09, 48.83 -3.26 M27.62 22.25 C33.04 16.9, 38.96 9.53, 50.82 -4.17 M34.28 24.5 C41.95 12.11, 49.34 6.66, 55.3 -0.7 M33.36 23.57 C40.26 15.96, 47.09 6.8, 53.89 0.05 M35.38 25.27 C39.04 21.58, 45.66 17.25, 54.09 3.92 M37.07 25.06 C41.48 19.24, 48.1 12.29, 54.16 5.15 M42.58 23.15 C46.71 19.77, 49.22 14.52, 53.14 10.73 M43.84 22.68 C47.05 19.44, 50.75 14.98, 53.18 10.55" stroke="#000000" stroke-width="0.5" fill="none"></path><path d="M0.53 -0.14 C0.59 1.3, -0.58 5.8, -0.53 8.33 C-0.49 10.86, -0.43 12.9, 0.79 15.05 C2.01 17.19, 3.83 20, 6.79 21.19 C9.76 22.37, 13.71 22.02, 18.56 22.15 C23.4 22.28, 31.03 22.28, 35.85 21.98 C40.68 21.68, 44.44 21.34, 47.49 20.37 C50.54 19.39, 53.23 18.54, 54.18 16.14 C55.14 13.74, 53.24 8.87, 53.21 5.98 C53.19 3.09, 55.07 1.05, 54.02 -1.21 C52.97 -3.48, 50.37 -6.18, 46.91 -7.63 C43.46 -9.08, 37.91 -9.43, 33.27 -9.93 C28.63 -10.43, 23.69 -10.99, 19.08 -10.63 C14.48 -10.27, 8.66 -9.57, 5.65 -7.76 C2.65 -5.96, 1.8 -0.94, 1.04 0.21 M-0.65 -1.25 C-0.11 -0.09, 1.7 4.45, 1.83 6.83 C1.97 9.21, -0.7 10.98, 0.19 13.03 C1.07 15.08, 4.31 17.65, 7.14 19.15 C9.96 20.65, 12.72 21.24, 17.16 22.05 C21.6 22.86, 28.59 24.54, 33.77 24.03 C38.96 23.51, 44.98 20.29, 48.27 18.98 C51.56 17.66, 52.43 18.03, 53.49 16.14 C54.55 14.25, 54.36 10.62, 54.62 7.64 C54.89 4.67, 56.28 0.63, 55.1 -1.71 C53.92 -4.06, 50.88 -5.1, 47.57 -6.44 C44.25 -7.78, 39.84 -8.95, 35.2 -9.77 C30.56 -10.59, 24.8 -11.58, 19.72 -11.37 C14.64 -11.15, 8.3 -10.33, 4.73 -8.48 C1.15 -6.62, -0.79 -1.63, -1.74 -0.24" stroke="#000000" stroke-width="1" fill="none"></path></g></g><g stroke-linecap="round" transform="translate(280.4917602041892 557.0500830935762) rotate(0 22.135295993753743 8.465339827639525)"><path d="M13.98 0.33 C17.88 -0.25, 23.76 0.45, 28.2 0.89 C32.64 1.32, 37.87 1.63, 40.6 2.94 C43.33 4.25, 45.04 6.66, 44.58 8.74 C44.13 10.82, 41.35 14.16, 37.89 15.41 C34.42 16.67, 28.6 16.33, 23.77 16.25 C18.95 16.18, 12.76 15.96, 8.95 14.96 C5.14 13.96, 2.05 11.98, 0.93 10.25 C-0.19 8.51, -0.15 6.13, 2.24 4.55 C4.63 2.97, 12.57 1.59, 15.26 0.77 C17.96 -0.05, 18.39 -0.45, 18.39 -0.36 M20.4 1.17 C24.52 1.12, 29.75 0.82, 33.74 1.64 C37.73 2.46, 43.09 4.25, 44.35 6.1 C45.61 7.96, 43.37 11.32, 41.31 12.76 C39.24 14.2, 36.11 14.04, 31.95 14.76 C27.79 15.47, 21.14 17.44, 16.35 17.07 C11.55 16.7, 6.06 14.27, 3.17 12.52 C0.28 10.77, -1.42 8.04, -0.98 6.57 C-0.54 5.09, 2.57 4.64, 5.8 3.66 C9.04 2.68, 15.97 1.51, 18.44 0.7 C20.91 -0.12, 20.14 -1.27, 20.62 -1.24" stroke="none" stroke-width="0" fill="#ffff"></path><path d="M32.77 1.84 C36.85 2.34, 41.04 3.16, 42.81 4.56 C44.59 5.95, 44.89 8.37, 43.42 10.21 C41.95 12.05, 37.98 14.4, 33.99 15.6 C30 16.8, 24.36 17.8, 19.48 17.39 C14.6 16.97, 7.86 14.58, 4.7 13.12 C1.54 11.67, 0.41 10.24, 0.5 8.65 C0.6 7.05, 2.51 4.81, 5.28 3.55 C8.05 2.29, 12.21 1.45, 17.12 1.1 C22.04 0.76, 31.82 1.5, 34.79 1.49 C37.77 1.48, 35.13 0.93, 34.97 1.05 M32.67 0.77 C36.97 1.12, 40.3 2.98, 41.89 4.48 C43.49 5.98, 43.44 7.82, 42.25 9.79 C41.07 11.76, 38.51 15.01, 34.78 16.3 C31.05 17.59, 24.66 17.82, 19.86 17.54 C15.06 17.25, 9.19 15.93, 5.98 14.59 C2.78 13.26, 1.13 11.55, 0.62 9.53 C0.11 7.5, 0.12 3.79, 2.92 2.45 C5.73 1.11, 12.48 1.7, 17.46 1.47 C22.43 1.25, 30.43 1.23, 32.75 1.09 C35.07 0.94, 31.82 0.67, 31.39 0.59" stroke="#000000" stroke-width="1" fill="none"></path></g><g stroke-linecap="round"><g transform="translate(275.9420116245665 586.0604464602342) rotate(0 27.008119087767852 10.332416275146898)" fill-rule="evenodd"><path d="M0 0 C0 0, 0 0, 0 0 M0 0 C0 0, 0 0, 0 0 M0.06 5.95 C1.09 4.52, 2.38 3.68, 3.24 2.1 M0.48 5.48 C1.13 4.68, 1.96 3.84, 3.65 1.84 M0.1 10.29 C2.65 8.99, 5.23 6.29, 7.9 4.48 M0.81 10.9 C2.81 9.22, 3.8 7.06, 7.47 3.34 M2.31 16.23 C3.49 13.89, 7.04 10.09, 11.55 6.33 M2.88 15.01 C5.19 11.41, 8.55 8.91, 10.83 6.88 M6.12 16.91 C6.67 13.98, 9.29 13.45, 13.67 6.56 M5.51 18.59 C8.31 14.34, 10.55 12.25, 14.51 7.83 M8.27 20.11 C14.15 17.29, 16.4 10.53, 19.07 7.66 M7.68 21.29 C10.88 18.2, 13.7 13.86, 20.52 6.48 M14.82 22.61 C17.18 17.52, 20.56 14.01, 25.1 5.97 M14.31 21.44 C16.61 17.07, 20.57 11.99, 26.02 6.39 M19.5 21.7 C24.22 16.21, 26.54 10.04, 30.1 5.42 M18.24 21.42 C21.16 18.71, 25.19 14.53, 31.82 6.65 M21.58 24.34 C26.26 18.48, 30.37 12.48, 35.16 5.7 M21.3 24.96 C24.95 20.31, 29.5 15.23, 35.92 7.71 M25.38 22.51 C29.87 18.69, 35.76 11.52, 40.29 5.85 M26.54 23.45 C30.38 19.41, 34.97 15.28, 41.66 6.99 M32.37 25.94 C39.06 18.03, 43.79 11.1, 47.04 7.72 M32.25 23.79 C37.23 19.02, 41.48 12.75, 47.1 5.74 M38.91 25.11 C44.67 14.83, 50.31 7.52, 54.64 3.06 M38.67 22.88 C45.17 15.59, 51.51 9.15, 55.14 2.67 M42.86 21.79 C46.58 18.17, 51.55 15.56, 55.39 10.46 M44.19 22.62 C45.92 18.74, 49.25 16.52, 55.78 8.84" stroke="#000000" stroke-width="0.5" fill="none"></path><path d="M-0.65 1.18 C-0.67 2.45, 0.13 5.08, 0.43 7.48 C0.74 9.87, -0.05 13.72, 1.18 15.56 C2.41 17.4, 4.75 17.61, 7.8 18.51 C10.86 19.41, 14.8 20.38, 19.52 20.95 C24.25 21.51, 31.59 21.93, 36.15 21.88 C40.71 21.84, 44.38 21.87, 46.9 20.66 C49.41 19.45, 50.05 16.7, 51.24 14.64 C52.44 12.57, 53.62 10.52, 54.07 8.26 C54.51 6, 54.41 1.99, 53.92 1.08 C53.42 0.17, 52.36 2.19, 51.08 2.8 C49.8 3.41, 48.98 4.3, 46.25 4.76 C43.52 5.21, 38.89 5.17, 34.7 5.54 C30.51 5.9, 25.38 7.25, 21.1 6.93 C16.82 6.61, 12.37 4.63, 9.03 3.61 C5.69 2.58, 2.57 1.43, 1.05 0.78 M1.21 0.76 C1.01 1.69, -0.23 3.52, -0.35 5.68 C-0.46 7.84, -0.9 11.49, 0.51 13.74 C1.92 15.98, 5.17 17.96, 8.12 19.13 C11.08 20.3, 13.29 20.48, 18.22 20.76 C23.15 21.04, 32.76 20.99, 37.7 20.8 C42.64 20.62, 45.28 20.23, 47.88 19.66 C50.48 19.08, 52.49 19.48, 53.3 17.34 C54.1 15.21, 52.42 9.59, 52.71 6.83 C52.99 4.08, 55.29 1.85, 55.02 0.83 C54.75 -0.19, 52.71 0.11, 51.08 0.71 C49.45 1.3, 47.98 3.23, 45.25 4.42 C42.52 5.61, 38.76 7.45, 34.71 7.85 C30.66 8.26, 25.68 7.12, 20.94 6.85 C16.2 6.58, 9.93 7.59, 6.27 6.24 C2.6 4.9, 0.24 -0.22, -1.02 -1.22" stroke="#000000" stroke-width="1" fill="none"></path></g></g><g stroke-linecap="round"><g transform="translate(275.96731522259665 604.5404609067081) rotate(0 26.617791211205997 10.517097996175892)" fill-rule="evenodd"><path d="M0 0 C0 0, 0 0, 0 0 M0 0 C0 0, 0 0, 0 0 M0.71 5.46 C0.96 5.11, 1.8 3.58, 3.91 1.52 M0.23 5.65 C1.46 4.37, 2.65 2.93, 3.65 1.79 M-0.21 11.41 C2.75 9.7, 4.31 6.76, 8.09 3.36 M0.41 11.6 C2.77 8.47, 4.66 6.63, 6.95 3.41 M3.3 14.52 C4.92 14.13, 5.06 12.41, 10.34 7.47 M2.08 14.95 C3.65 13.31, 6.31 12.12, 10.89 6.11 M4.38 16.9 C7.46 13.31, 12.95 9.36, 13.78 7.53 M6.06 18.08 C8.11 13.99, 12.32 10.75, 15.05 7.64 M8.66 21.55 C12.97 16.84, 13.56 12.21, 20.89 6.2 M9.78 19.42 C13.91 14.98, 16.85 11.31, 19.77 6.97 M15.1 21.07 C17.41 17.02, 21.29 12.49, 25.26 6.51 M13.93 20.62 C18.52 15.33, 22.4 9.92, 25.69 7.36 M17.4 23.52 C20.32 17.64, 22.53 14.73, 29.34 6.39 M17.13 21.82 C21.31 19.01, 24.01 16.39, 30.58 7.72 M21.86 23.54 C27.16 16.51, 32.32 11.52, 34.25 6.17 M22.47 23.85 C24.88 21.44, 26.86 16.86, 36.26 7.68 M25.31 21.66 C30.56 18.86, 32.47 14.47, 41.85 5.04 M26.25 23.65 C30.44 19.97, 34.56 14.01, 42.99 6.9 M34.12 25.47 C37.78 18.68, 42.4 11.73, 48.34 7.31 M31.97 24.06 C38.02 17.46, 42.59 12.24, 46.36 7.09 M39.32 24.13 C39.84 19.22, 43.35 13.98, 55.36 4.65 M37.1 24.2 C41.29 19.28, 46.36 14.05, 54.98 3.18 M46.23 18.77 C48.85 17.24, 52.26 13.88, 55.9 8.77 M46.86 18.8 C48.79 16.35, 51.99 13.88, 54.67 9.54" stroke="#000000" stroke-width="0.5" fill="none"></path><path d="M1.18 0.32 C1.33 1.57, 0.61 4.51, 0.74 6.84 C0.87 9.17, 0.99 12.23, 1.99 14.29 C2.99 16.35, 4.05 17.98, 6.74 19.21 C9.42 20.44, 13.27 21.22, 18.11 21.68 C22.96 22.15, 31.01 22.54, 35.81 21.98 C40.61 21.42, 44.36 19.35, 46.92 18.35 C49.47 17.34, 50.09 17.56, 51.17 15.96 C52.25 14.36, 52.97 11.4, 53.39 8.74 C53.81 6.09, 53.78 1.1, 53.68 0.05 C53.59 -1, 54.15 1.76, 52.81 2.42 C51.47 3.09, 48.74 3.22, 45.63 4.04 C42.52 4.87, 38.36 6.79, 34.14 7.39 C29.91 7.98, 24.78 7.93, 20.27 7.6 C15.76 7.28, 10.32 6.69, 7.08 5.42 C3.83 4.14, 2.01 0.92, 0.78 -0.05 M0.35 -0.56 C0.4 0.96, -0.11 5.77, 0.12 8.48 C0.35 11.18, 0.68 13.68, 1.75 15.68 C2.81 17.68, 3.5 19.39, 6.5 20.48 C9.49 21.57, 14.61 22.08, 19.73 22.21 C24.84 22.34, 32.49 21.63, 37.18 21.27 C41.88 20.92, 45.23 20.97, 47.9 20.08 C50.57 19.19, 52.56 17.99, 53.19 15.93 C53.82 13.86, 51.43 10.47, 51.67 7.69 C51.91 4.92, 54.93 0.53, 54.66 -0.73 C54.39 -1.98, 51.78 -0.53, 50.05 0.16 C48.33 0.84, 47 2.24, 44.3 3.4 C41.6 4.55, 37.95 6.34, 33.84 7.11 C29.74 7.87, 24.16 8.26, 19.67 7.98 C15.19 7.69, 10.46 6.54, 6.94 5.41 C3.42 4.28, 0.01 2.05, -1.44 1.18" stroke="#000000" stroke-width="1" fill="none"></path></g></g><g stroke-linecap="round" transform="translate(438 46.10385733144962) rotate(0 69 58.00000000000001)"><path d="M75.88 0.19 C86.14 0.08, 98.88 4.35, 107.99 9.3 C117.1 14.24, 125.63 21.76, 130.53 29.83 C135.43 37.9, 137.43 48.64, 137.39 57.73 C137.35 66.81, 134.97 76.42, 130.31 84.35 C125.64 92.28, 118.14 99.99, 109.42 105.32 C100.7 110.65, 88.67 115.28, 77.98 116.34 C67.3 117.41, 55.26 114.89, 45.31 111.71 C35.35 108.53, 25.54 103.61, 18.26 97.25 C10.98 90.9, 4.37 82.17, 1.62 73.58 C-1.13 64.99, -0.62 54.44, 1.75 45.69 C4.12 36.95, 8.97 27.92, 15.84 21.1 C22.72 14.29, 32.42 8.05, 43 4.78 C53.59 1.51, 73.08 1.88, 79.33 1.48 C85.57 1.08, 80.71 1.7, 80.48 2.39 M39.14 4.35 C47.95 -0.09, 60.35 -1.27, 71.13 -0.73 C81.91 -0.18, 94.76 2.98, 103.83 7.64 C112.9 12.29, 120.09 19.78, 125.55 27.2 C131.01 34.61, 135.33 43.29, 136.58 52.11 C137.84 60.93, 137.06 71.55, 133.09 80.1 C129.11 88.65, 120.9 97.86, 112.74 103.44 C104.57 109.02, 94.59 111.99, 84.07 113.56 C73.55 115.13, 59.8 115.03, 49.59 112.85 C39.38 110.66, 30.31 106.44, 22.81 100.43 C15.31 94.42, 8.34 85.33, 4.59 76.77 C0.84 68.21, -1.43 58.09, 0.3 49.08 C2.03 40.08, 8.56 29.93, 14.95 22.76 C21.35 15.59, 34.7 8.48, 38.66 6.05 C42.62 3.63, 38.34 7.38, 38.72 8.21" stroke="#000000" stroke-width="1" fill="none"></path></g><g transform="translate(458 78.10385733144963) rotate(0 49 26)"><text x="49" y="18" font-family="Virgil, Segoe UI Emoji" font-size="20px" fill="#000000" text-anchor="middle" style="white-space: pre;" direction="ltr">stats</text><text x="49" y="44" font-family="Virgil, Segoe UI Emoji" font-size="20px" fill="#000000" text-anchor="middle" style="white-space: pre;" direction="ltr">subscriber</text></g><g stroke-linecap="round"><g transform="translate(342 195.10385733144963) rotate(0 48.233543683244534 -38.68926439733225)"><path d="M-0.26 -0.82 C4.59 -8.42, 12.3 -31.79, 28.07 -44.78 C43.83 -57.76, 83.27 -73.07, 94.35 -78.74 M1.8 1.36 C7.11 -6.18, 14.47 -30.49, 30.29 -43.65 C46.11 -56.81, 86.06 -71.87, 96.73 -77.59" stroke="#000000" stroke-width="1" fill="none"></path></g><g transform="translate(342 195.10385733144963) rotate(0 48.233543683244534 -38.68926439733225)"><path d="M74.01 -58.07 C78.52 -62.63, 83.88 -66.89, 96.03 -78.42 M74.94 -57.49 C83.66 -63.97, 90.81 -71.14, 97.31 -77.59" stroke="#000000" stroke-width="1" fill="none"></path></g><g transform="translate(342 195.10385733144963) rotate(0 48.233543683244534 -38.68926439733225)"><path d="M65.46 -76.73 C71.94 -77.26, 79.13 -77.52, 96.03 -78.42 M66.38 -76.14 C78.15 -75.85, 88.38 -76.28, 97.31 -77.59" stroke="#000000" stroke-width="1" fill="none"></path></g></g><g transform="translate(372 161.60385733144963) rotate(0 64 21)"><text x="0" y="15" font-family="Virgil, Segoe UI Emoji" font-size="16px" fill="#000000" text-anchor="start" style="white-space: pre;" direction="ltr">6. subscribes to</text><text x="0" y="36" font-family="Virgil, Segoe UI Emoji" font-size="16px" fill="#000000" text-anchor="start" style="white-space: pre;" direction="ltr">'STATS' topic</text></g><g stroke-linecap="round"><g transform="translate(611.1440411609296 21.626302943688742) rotate(0 44.351600849193005 0.37963837139211165)"><path d="M0.87 -0.53 C15.16 -0.53, 72.32 -1.26, 86.54 -1.01 M-0.13 1.81 C14.48 1.99, 74.07 0.38, 88.83 -0.09" stroke="#000000" stroke-width="1" fill="none"></path></g></g><g stroke-linecap="round" transform="translate(613.9491545518772 15.181053242467627) rotate(0 1.710536515767899 1.6854454857953485)"><path d="M0.73 -0.6 C1.14 -1.02, 1.39 -0.98, 1.75 -0.75 C2.1 -0.53, 2.73 0.28, 2.86 0.73 C2.99 1.19, 2.58 1.61, 2.55 1.95 C2.52 2.3, 2.93 2.58, 2.68 2.82 C2.43 3.07, 1.38 3.34, 1.03 3.43 C0.68 3.52, 0.8 3.62, 0.57 3.36 C0.34 3.11, -0.12 2.28, -0.36 1.9 C-0.59 1.52, -1.05 1.48, -0.85 1.09 C-0.64 0.69, 0.49 -0.22, 0.87 -0.45 C1.26 -0.69, 1.48 -0.43, 1.45 -0.31 M0.58 -0.83 C0.48 -1.05, 0.99 -1.31, 1.2 -0.83 C1.41 -0.36, 1.58 1.78, 1.85 2.02 C2.11 2.26, 2.51 0.55, 2.8 0.6 C3.09 0.64, 3.77 1.91, 3.58 2.27 C3.38 2.64, 2 2.58, 1.62 2.8 C1.24 3.03, 1.52 4, 1.31 3.64 C1.1 3.28, 0.79 1.06, 0.37 0.63 C-0.06 0.2, -1.21 1.16, -1.24 1.05 C-1.27 0.95, -0.38 0.12, 0.18 -0.02 C0.75 -0.16, 1.91 0.21, 2.14 0.19" stroke="#000000" stroke-width="1" fill="none"></path></g><g stroke-linecap="round" transform="translate(618.875294247437 15.181053242467627) rotate(0 1.710536515767899 1.6854454857953485)"><path d="M0.1 -0.12 C0.16 -0.31, 0.77 -0.14, 1.27 -0.16 C1.78 -0.18, 2.75 -0.49, 3.14 -0.23 C3.54 0.04, 3.65 1.09, 3.63 1.44 C3.6 1.8, 3.26 1.61, 2.99 1.89 C2.73 2.17, 2.35 2.99, 2.03 3.12 C1.71 3.25, 1.43 2.99, 1.05 2.68 C0.68 2.36, -0.07 1.53, -0.22 1.24 C-0.37 0.95, 0.06 1.05, 0.16 0.93 C0.25 0.8, 0.29 0.69, 0.36 0.5 C0.43 0.32, 0.47 -0.06, 0.58 -0.2 M1.55 -0.93 C1.78 -0.93, 1.85 -0.75, 2.34 -0.33 C2.84 0.08, 4.7 0.87, 4.52 1.57 C4.34 2.27, 1.89 3.58, 1.27 3.86 C0.65 4.15, 1.04 3.33, 0.81 3.27 C0.58 3.22, -0.07 3.74, -0.1 3.55 C-0.12 3.36, 0.82 2.86, 0.67 2.13 C0.52 1.41, -1.15 -0.29, -1 -0.79 C-0.86 -1.3, 0.97 -1.23, 1.53 -0.9 C2.09 -0.57, 2.19 0.93, 2.36 1.17 C2.52 1.41, 2.58 0.83, 2.52 0.53" stroke="#000000" stroke-width="1" fill="none"></path></g><g stroke-linecap="round" transform="translate(623.6327115839689 15.181053242467627) rotate(0 1.710536515767899 1.6854454857953485)"><path d="M1.94 -0.7 C2.27 -0.47, 2.87 0.42, 2.97 0.89 C3.07 1.37, 2.6 1.8, 2.53 2.15 C2.46 2.49, 2.82 2.74, 2.54 2.96 C2.26 3.18, 1.19 3.4, 0.83 3.45 C0.48 3.5, 0.61 3.54, 0.41 3.25 C0.2 2.96, -0.21 2.1, -0.41 1.71 C-0.6 1.32, -0.99 1.28, -0.76 0.91 C-0.54 0.54, 0.39 -0.28, 0.96 -0.49 C1.53 -0.7, 2.48 -0.45, 2.65 -0.35 C2.82 -0.24, 2.16 -0.13, 1.98 0.12 M0.37 -0.92 C0.58 -0.64, 0.88 1.31, 1.27 1.43 C1.67 1.55, 2.28 -0.25, 2.74 -0.22 C3.21 -0.19, 4.12 1.14, 4.07 1.61 C4.01 2.09, 2.76 2.21, 2.42 2.61 C2.09 3.01, 2.34 4.21, 2.05 4 C1.77 3.8, 1.29 1.74, 0.7 1.38 C0.12 1.02, -1.27 2, -1.47 1.84 C-1.68 1.68, -1.16 0.73, -0.51 0.44 C0.15 0.14, 2.08 0.2, 2.47 0.08 C2.85 -0.05, 2.12 -0.18, 1.8 -0.33" stroke="#000000" stroke-width="1" fill="none"></path></g><g stroke-linecap="round"><g transform="translate(608.1639059473076 41.82045907944712) rotate(0 46.27813971242006 0.475783802456462)"><path d="M-1.18 0.78 C-1.06 -1.26, -0.26 -9.01, -0.1 -13.44 C0.06 -17.86, -0.44 -23.04, -0.24 -25.75 C-0.03 -28.46, 0.13 -28.95, 1.12 -29.71 C2.12 -30.48, 1.16 -30.21, 5.74 -30.33 C10.33 -30.44, 19.95 -30.39, 28.66 -30.41 C37.37 -30.43, 48.39 -30.49, 58.02 -30.44 C67.65 -30.4, 80.92 -30.22, 86.45 -30.12 C91.98 -30.02, 90.34 -30.76, 91.19 -29.84 C92.04 -28.93, 91.36 -27.55, 91.55 -24.63 C91.75 -21.71, 92.13 -16.54, 92.35 -12.32 C92.57 -8.1, 92.94 -3.55, 92.85 0.67 C92.77 4.88, 92.03 8.59, 91.84 12.97 C91.66 17.35, 91.78 24.05, 91.74 26.96 C91.7 29.88, 92.54 29.87, 91.62 30.46 C90.7 31.05, 91.19 30.54, 86.21 30.5 C81.23 30.45, 71.24 30.2, 61.76 30.18 C52.27 30.16, 38.7 30.16, 29.3 30.38 C19.89 30.61, 10.18 31.52, 5.32 31.52 C0.46 31.51, 1.11 31.32, 0.16 30.35 C-0.79 29.38, -0.42 28.57, -0.37 25.69 C-0.31 22.82, 0.61 17.57, 0.49 13.09 C0.37 8.61, -1.02 1.13, -1.07 -1.18 M0.41 0.14 C0.42 -1.68, -0.89 -8.22, -1.16 -12.4 C-1.43 -16.58, -1.6 -22.24, -1.2 -24.93 C-0.8 -27.62, -0.18 -27.74, 1.25 -28.56 C2.68 -29.37, 2.61 -29.32, 7.38 -29.81 C12.16 -30.29, 21.43 -31.12, 29.88 -31.44 C38.33 -31.76, 48.85 -31.93, 58.09 -31.74 C67.32 -31.55, 79.47 -30.97, 85.28 -30.31 C91.08 -29.64, 91.83 -28.63, 92.9 -27.76 C93.97 -26.88, 91.76 -27.74, 91.71 -25.07 C91.66 -22.39, 92.6 -15.89, 92.59 -11.72 C92.58 -7.55, 91.78 -4.02, 91.65 -0.05 C91.52 3.93, 91.4 7.55, 91.83 12.12 C92.27 16.69, 94.27 24.43, 94.26 27.35 C94.25 30.28, 93.01 29.01, 91.78 29.67 C90.54 30.32, 91.52 31.17, 86.85 31.28 C82.19 31.4, 73.5 30.49, 63.77 30.36 C54.05 30.23, 37.96 30.21, 28.5 30.5 C19.04 30.79, 11.7 31.81, 7.01 32.1 C2.32 32.38, 1.8 33.41, 0.35 32.19 C-1.1 30.98, -1.81 28.19, -1.69 24.8 C-1.57 21.42, 1.05 15.85, 1.06 11.88 C1.06 7.92, -1.18 2.7, -1.65 0.99" stroke="#000000" stroke-width="1" fill="none"></path></g></g><g stroke-linecap="round"><g transform="translate(663.5648306550179 14.417369004924709) rotate(0 0.9602202468930727 1.8879208449683347)"><path d="M0.78 -0.21 C5.44 -0.08, 21.79 -0.53, 26.81 -0.39 C31.83 -0.24, 30.04 0.14, 30.9 0.66 C31.76 1.17, 32.42 2.19, 31.95 2.7 C31.49 3.21, 33.43 3.66, 28.11 3.71 C22.78 3.77, 8.98 3.04, 0.01 3.05 C-8.95 3.07, -20.61 3.71, -25.68 3.79 C-30.75 3.87, -29.48 4.21, -30.42 3.55 C-31.37 2.88, -31.95 0.43, -31.35 -0.19 C-30.74 -0.8, -31.88 -0.25, -26.78 -0.16 C-21.68 -0.06, -5.1 0.45, -0.73 0.4 M-0.27 -1.36 C4.86 -0.96, 23.42 0.41, 29.02 0.95 C34.61 1.49, 32.76 1.47, 33.3 1.85 C33.84 2.24, 33.34 2.91, 32.26 3.26 C31.17 3.6, 31.91 3.61, 26.77 3.92 C21.63 4.22, 10.06 5.37, 1.43 5.1 C-7.2 4.83, -19.53 2.66, -24.99 2.29 C-30.44 1.93, -30.53 3.06, -31.29 2.93 C-32.05 2.79, -30.43 2.08, -29.55 1.48 C-28.67 0.87, -30.78 -0.71, -25.99 -0.69 C-21.2 -0.67, -5.36 1.67, -0.79 1.59" stroke="#000000" stroke-width="1" fill="none"></path></g></g><g stroke-linecap="round"><g transform="translate(578.9961434150715 102.92181924742067) rotate(0 11.884471418268731 -8.773348768344192)"><path d="M-0.56 -0.04 C3.17 -2.92, 18.08 -14.66, 21.92 -17.51 M1.34 -1.1 C5.51 -3.77, 20.94 -13.59, 24.33 -16.01" stroke="#000000" stroke-width="1" fill="none"></path></g><g transform="translate(578.9961434150715 102.92181924742067) rotate(0 11.884471418268731 -8.773348768344192)"><path d="M15.86 -5.23 C18.05 -7.53, 20.71 -9.65, 23.29 -16.8 M15.45 -4.32 C18.31 -6.88, 20.34 -10.53, 24.58 -16.21" stroke="#000000" stroke-width="1" fill="none"></path></g><g transform="translate(578.9961434150715 102.92181924742067) rotate(0 11.884471418268731 -8.773348768344192)"><path d="M10.46 -13.33 C14.05 -13.48, 18.13 -13.47, 23.29 -16.8 M10.05 -12.42 C14.18 -12.91, 17.56 -14.52, 24.58 -16.21" stroke="#000000" stroke-width="1" fill="none"></path></g></g><g transform="translate(613 82.60385733144963) rotate(0 104.5 10.5)"><text x="0" y="15" font-family="Virgil, Segoe UI Emoji" font-size="16px" fill="#000000" text-anchor="start" style="white-space: pre;" direction="ltr">7. prints stats to console</text></g><g stroke-linecap="round"><g transform="translate(240 503.1038573314496) rotate(0 13.010073252170116 37.30051354328168)"><path d="M0.21 0.76 C-0.24 8.32, -7.55 32.77, -2.91 45.05 C1.73 57.34, 22.55 69.85, 28.06 74.49 M-1.14 0.11 C-1.2 7.91, -5.94 34.57, -0.67 46.62 C4.59 58.67, 25.8 67.94, 30.47 72.4" stroke="#000000" stroke-width="1" fill="none"></path></g><g transform="translate(240 503.1038573314496) rotate(0 13.010073252170116 37.30051354328168)"><path d="M11.14 65.74 C15.82 67.13, 22.42 72.08, 28.56 72.59 M10.4 67.19 C15.06 67.62, 20.3 70.71, 30.53 72.8" stroke="#000000" stroke-width="1" fill="none"></path></g><g transform="translate(240 503.1038573314496) rotate(0 13.010073252170116 37.30051354328168)"><path d="M19.26 53.71 C21.6 58.54, 25.87 66.92, 28.56 72.59 M18.52 55.15 C21.09 58.76, 24.2 64.98, 30.53 72.8" stroke="#000000" stroke-width="1" fill="none"></path></g></g><g transform="translate(111 530.6038573314496) rotate(0 58.5 42)"><text x="0" y="15" font-family="Virgil, Segoe UI Emoji" font-size="16px" fill="#000000" text-anchor="start" style="white-space: pre;" direction="ltr">3. puts number</text><text x="0" y="36" font-family="Virgil, Segoe UI Emoji" font-size="16px" fill="#000000" text-anchor="start" style="white-space: pre;" direction="ltr">and timestamp</text><text x="0" y="57" font-family="Virgil, Segoe UI Emoji" font-size="16px" fill="#000000" text-anchor="start" style="white-space: pre;" direction="ltr">from message</text><text x="0" y="78" font-family="Virgil, Segoe UI Emoji" font-size="16px" fill="#000000" text-anchor="start" style="white-space: pre;" direction="ltr">into sqlite db</text></g><g stroke-linecap="round"><g transform="translate(332 575.1038573314496) rotate(0 14.429663059366817 -38.40206324197351)"><path d="M0.38 0.19 C4.79 -5.01, 21.06 -17.26, 25.95 -30.12 C30.84 -42.99, 29.19 -69.43, 29.74 -77 M-0.88 -0.75 C3.41 -5.33, 20.03 -16.6, 24.98 -29.18 C29.93 -41.75, 28.14 -68.7, 28.83 -76.2" stroke="#000000" stroke-width="1" fill="none"></path></g><g transform="translate(332 575.1038573314496) rotate(0 14.429663059366817 -38.40206324197351)"><path d="M36.82 -53.98 C32.44 -60.08, 30.67 -66.64, 29.59 -76 M36.86 -53.28 C34.24 -61.28, 32.46 -66.38, 28.88 -76.84" stroke="#000000" stroke-width="1" fill="none"></path></g><g transform="translate(332 575.1038573314496) rotate(0 14.429663059366817 -38.40206324197351)"><path d="M20.69 -54.27 C20.48 -60.35, 22.89 -66.84, 29.59 -76 M20.73 -53.57 C22.96 -61.63, 26.04 -66.65, 28.88 -76.84" stroke="#000000" stroke-width="1" fill="none"></path></g></g><g transform="translate(367 537.6038573314496) rotate(0 64 21)"><text x="0" y="15" font-family="Virgil, Segoe UI Emoji" font-size="16px" fill="#000000" text-anchor="start" style="white-space: pre;" direction="ltr">4. get averages</text><text x="0" y="36" font-family="Virgil, Segoe UI Emoji" font-size="16px" fill="#000000" text-anchor="start" style="white-space: pre;" direction="ltr">from db</text></g><g stroke-linecap="round"><g transform="translate(304.039893313589 613.9280878982624) rotate(327.328897237853 25.466990168245786 22.56971483479839)"><path d="M1.04 1.11 C7 9.16, 27.15 48.03, 35.44 47.46 C43.73 46.89, 48.52 5.89, 50.8 -2.33 M0.13 0.64 C5.92 8.4, 25.85 45.86, 34.25 45.54 C42.65 45.21, 48.07 6.4, 50.53 -1.32" stroke="#000000" stroke-width="1" fill="none"></path></g><g transform="translate(304.039893313589 613.9280878982624) rotate(327.328897237853 25.466990168245786 22.56971483479839)"><path d="M55.64 23.07 C53.71 18.51, 51.19 8.79, 50.38 0.1 M53.27 24.27 C52.75 17.06, 51.52 9.39, 50.14 -2.31" stroke="#000000" stroke-width="1" fill="none"></path></g><g transform="translate(304.039893313589 613.9280878982624) rotate(327.328897237853 25.466990168245786 22.56971483479839)"><path d="M38.69 19.28 C41.42 15.62, 43.57 6.94, 50.38 0.1 M36.33 20.48 C40.56 14.23, 44.1 7.62, 50.14 -2.31" stroke="#000000" stroke-width="1" fill="none"></path></g></g><g transform="translate(298 650.6038573314496) rotate(0 80 21)"><text x="0" y="15" font-family="Virgil, Segoe UI Emoji" font-size="16px" fill="#000000" text-anchor="start" style="white-space: pre;" direction="ltr">delete old messages</text><text x="0" y="36" font-family="Virgil, Segoe UI Emoji" font-size="16px" fill="#000000" text-anchor="start" style="white-space: pre;" direction="ltr">from db</text></g></svg>